<svg width="267" height="54" viewBox="0 0 267 54" fill="none" xmlns="http://www.w3.org/2000/svg">
<rect y="21.3333" width="10.6667" height="10.6667" fill="#026AA2"/>
<rect x="32" y="32.0001" width="10.6667" height="10.6667" transform="rotate(180 32 32.0001)" fill="#0B4A6F"/>
<path d="M10.6667 21.3334L21.3334 10.6667V21.3334L10.6667 32V21.3334Z" fill="#7CD4FD"/>
<path d="M21.3333 32L10.6666 42.6667L10.6666 32L21.3333 21.3334L21.3333 32Z" fill="#36BFFA"/>
<path d="M0 21.3333L21.3333 0V10.6667L10.6667 21.3333H0Z" fill="#0BA5EC"/>
<path d="M32 32.0001L10.6667 53.3334L10.6667 42.6668L21.3333 32.0001L32 32.0001Z" fill="#0086C9"/>
<path d="M60.744 38.238C58.9987 38.238 57.4347 37.9547 56.052 37.388C54.6693 36.8213 53.5587 35.9827 52.72 34.872C51.904 33.7613 51.4733 32.424 51.428 30.86H57.616C57.7067 31.744 58.0127 32.424 58.534 32.9C59.0553 33.3533 59.7353 33.58 60.574 33.58C61.4353 33.58 62.1153 33.3873 62.614 33.002C63.1127 32.594 63.362 32.0387 63.362 31.336C63.362 30.7467 63.158 30.2593 62.75 29.874C62.3647 29.4887 61.8773 29.1713 61.288 28.922C60.7213 28.6727 59.9053 28.3893 58.84 28.072C57.2987 27.596 56.0407 27.12 55.066 26.644C54.0913 26.168 53.2527 25.4653 52.55 24.536C51.8473 23.6067 51.496 22.394 51.496 20.898C51.496 18.6767 52.3007 16.9427 53.91 15.696C55.5193 14.4267 57.616 13.792 60.2 13.792C62.8293 13.792 64.9487 14.4267 66.558 15.696C68.1673 16.9427 69.0287 18.688 69.142 20.932H62.852C62.8067 20.1613 62.5233 19.5607 62.002 19.13C61.4807 18.6767 60.812 18.45 59.996 18.45C59.2933 18.45 58.7267 18.6427 58.296 19.028C57.8653 19.3907 57.65 19.9233 57.65 20.626C57.65 21.3967 58.0127 21.9973 58.738 22.428C59.4633 22.8587 60.5967 23.3233 62.138 23.822C63.6793 24.3433 64.926 24.842 65.878 25.318C66.8527 25.794 67.6913 26.4853 68.394 27.392C69.0967 28.2987 69.448 29.466 69.448 30.894C69.448 32.254 69.0967 33.4893 68.394 34.6C67.714 35.7107 66.7167 36.5947 65.402 37.252C64.0873 37.9093 62.5347 38.238 60.744 38.238ZM97.234 18.824C99.5913 18.824 101.461 19.538 102.844 20.966C104.249 22.394 104.952 24.3773 104.952 26.916V38H99.172V27.698C99.172 26.474 98.8433 25.5333 98.186 24.876C97.5513 24.196 96.6673 23.856 95.534 23.856C94.4006 23.856 93.5053 24.196 92.848 24.876C92.2133 25.5333 91.896 26.474 91.896 27.698V38H86.116V27.698C86.116 26.474 85.7873 25.5333 85.13 24.876C84.4953 24.196 83.6113 23.856 82.478 23.856C81.3446 23.856 80.4493 24.196 79.792 24.876C79.1573 25.5333 78.84 26.474 78.84 27.698V38H73.026V19.028H78.84V21.408C79.4293 20.6147 80.2 19.9913 81.152 19.538C82.104 19.062 83.1806 18.824 84.382 18.824C85.81 18.824 87.0793 19.13 88.19 19.742C89.3233 20.354 90.2073 21.2267 90.842 22.36C91.4993 21.3173 92.3946 20.4673 93.528 19.81C94.6613 19.1527 95.8966 18.824 97.234 18.824ZM107.862 28.48C107.862 26.5307 108.225 24.8193 108.95 23.346C109.698 21.8727 110.707 20.7393 111.976 19.946C113.245 19.1527 114.662 18.756 116.226 18.756C117.563 18.756 118.731 19.028 119.728 19.572C120.748 20.116 121.53 20.83 122.074 21.714V19.028H127.888V38H122.074V35.314C121.507 36.198 120.714 36.912 119.694 37.456C118.697 38 117.529 38.272 116.192 38.272C114.651 38.272 113.245 37.8753 111.976 37.082C110.707 36.266 109.698 35.1213 108.95 33.648C108.225 32.152 107.862 30.4293 107.862 28.48ZM122.074 28.514C122.074 27.0633 121.666 25.9187 120.85 25.08C120.057 24.2413 119.082 23.822 117.926 23.822C116.77 23.822 115.784 24.2413 114.968 25.08C114.175 25.896 113.778 27.0293 113.778 28.48C113.778 29.9307 114.175 31.0867 114.968 31.948C115.784 32.7867 116.77 33.206 117.926 33.206C119.082 33.206 120.057 32.7867 120.85 31.948C121.666 31.1093 122.074 29.9647 122.074 28.514ZM137.908 22.19C138.588 21.1473 139.438 20.3313 140.458 19.742C141.478 19.13 142.612 18.824 143.858 18.824V24.978H142.26C140.81 24.978 139.722 25.2953 138.996 25.93C138.271 26.542 137.908 27.63 137.908 29.194V38H132.094V19.028H137.908V22.19ZM157.211 33.07V38H154.253C152.145 38 150.502 37.49 149.323 36.47C148.145 35.4273 147.555 33.7387 147.555 31.404V23.856H145.243V19.028H147.555V14.404H153.369V19.028H157.177V23.856H153.369V31.472C153.369 32.0387 153.505 32.4467 153.777 32.696C154.049 32.9453 154.503 33.07 155.137 33.07H157.211ZM174.9 25.76C176.282 26.0547 177.393 26.746 178.232 27.834C179.07 28.8993 179.49 30.1233 179.49 31.506C179.49 33.5007 178.787 35.0873 177.382 36.266C175.999 37.422 174.061 38 171.568 38H160.45V14.132H171.194C173.619 14.132 175.512 14.6873 176.872 15.798C178.254 16.9087 178.946 18.416 178.946 20.32C178.946 21.7253 178.572 22.8927 177.824 23.822C177.098 24.7513 176.124 25.3973 174.9 25.76ZM166.264 23.788H170.072C171.024 23.788 171.749 23.584 172.248 23.176C172.769 22.7453 173.03 22.122 173.03 21.306C173.03 20.49 172.769 19.8667 172.248 19.436C171.749 19.0053 171.024 18.79 170.072 18.79H166.264V23.788ZM170.548 33.308C171.522 33.308 172.27 33.0927 172.792 32.662C173.336 32.2087 173.608 31.5627 173.608 30.724C173.608 29.8853 173.324 29.228 172.758 28.752C172.214 28.276 171.454 28.038 170.48 28.038H166.264V33.308H170.548ZM181.706 28.48C181.706 26.5307 182.069 24.8193 182.794 23.346C183.542 21.8727 184.551 20.7393 185.82 19.946C187.089 19.1527 188.506 18.756 190.07 18.756C191.407 18.756 192.575 19.028 193.572 19.572C194.592 20.116 195.374 20.83 195.918 21.714V19.028H201.732V38H195.918V35.314C195.351 36.198 194.558 36.912 193.538 37.456C192.541 38 191.373 38.272 190.036 38.272C188.495 38.272 187.089 37.8753 185.82 37.082C184.551 36.266 183.542 35.1213 182.794 33.648C182.069 32.152 181.706 30.4293 181.706 28.48ZM195.918 28.514C195.918 27.0633 195.51 25.9187 194.694 25.08C193.901 24.2413 192.926 23.822 191.77 23.822C190.614 23.822 189.628 24.2413 188.812 25.08C188.019 25.896 187.622 27.0293 187.622 28.48C187.622 29.9307 188.019 31.0867 188.812 31.948C189.628 32.7867 190.614 33.206 191.77 33.206C192.926 33.206 193.901 32.7867 194.694 31.948C195.51 31.1093 195.918 29.9647 195.918 28.514ZM217.498 18.824C219.719 18.824 221.487 19.5493 222.802 21C224.139 22.428 224.808 24.4 224.808 26.916V38H219.028V27.698C219.028 26.4287 218.699 25.4427 218.042 24.74C217.385 24.0373 216.501 23.686 215.39 23.686C214.279 23.686 213.395 24.0373 212.738 24.74C212.081 25.4427 211.752 26.4287 211.752 27.698V38H205.938V19.028H211.752V21.544C212.341 20.7053 213.135 20.048 214.132 19.572C215.129 19.0733 216.251 18.824 217.498 18.824ZM227.692 28.48C227.692 26.5307 228.055 24.8193 228.78 23.346C229.528 21.8727 230.537 20.7393 231.806 19.946C233.076 19.1527 234.492 18.756 236.056 18.756C237.303 18.756 238.436 19.0167 239.456 19.538C240.499 20.0593 241.315 20.762 241.904 21.646V12.84H247.718V38H241.904V35.28C241.36 36.1867 240.578 36.912 239.558 37.456C238.561 38 237.394 38.272 236.056 38.272C234.492 38.272 233.076 37.8753 231.806 37.082C230.537 36.266 229.528 35.1213 228.78 33.648C228.055 32.152 227.692 30.4293 227.692 28.48ZM241.904 28.514C241.904 27.0633 241.496 25.9187 240.68 25.08C239.887 24.2413 238.912 23.822 237.756 23.822C236.6 23.822 235.614 24.2413 234.798 25.08C234.005 25.896 233.608 27.0293 233.608 28.48C233.608 29.9307 234.005 31.0867 234.798 31.948C235.614 32.7867 236.6 33.206 237.756 33.206C238.912 33.206 239.887 32.7867 240.68 31.948C241.496 31.1093 241.904 29.9647 241.904 28.514Z" fill="#535862"/>
</svg>
